<?xml version="1.0" encoding="UTF-8"?>
<svg version="1.1" xmlns="http://www.w3.org/2000/svg" width="348" height="371">
<path d="M0 0 C20.16907252 15.81734757 34.62425702 37.54029243 38.0234375 63.37109375 C38.13836333 66.66412398 38.11818786 69.95159572 38.0859375 73.24609375 C38.08142578 74.12523438 38.07691406 75.004375 38.07226562 75.91015625 C38.06056087 78.06383178 38.04262819 80.21747192 38.0234375 82.37109375 C38.74847473 82.3622113 39.47351196 82.35332886 40.22052002 82.34417725 C47.10384532 82.26352643 53.98709862 82.20287544 60.87077713 82.16384506 C64.40852513 82.1431033 67.94587784 82.11503715 71.48339844 82.06933594 C75.56448838 82.01695139 79.64517298 81.99803804 83.7265625 81.98046875 C85.6022995 81.94950104 85.6022995 81.94950104 87.51593018 81.91790771 C101.96291723 81.91427142 114.07986265 86.79385948 124.7734375 96.55859375 C134.88084396 107.39489971 138.25993924 119.58876781 138.6171875 133.953125 C137.81943219 138.54546642 136.83883147 139.65867419 133.0234375 142.37109375 C128.77546881 143.07450065 124.5804586 142.95181439 120.28515625 142.859375 C119.04925247 142.85230026 117.81334869 142.84522552 116.53999329 142.8379364 C113.26632208 142.81472089 109.9938959 142.76986152 106.72064209 142.7144165 C103.37572701 142.66311568 100.03075754 142.6408266 96.68554688 142.61523438 C90.13102513 142.56013519 83.5773331 142.47648336 77.0234375 142.37109375 C77.3534375 143.03109375 77.6834375 143.69109375 78.0234375 144.37109375 C79.02192768 154.96267312 78.38359184 163.39370776 72.0234375 172.37109375 C69.90996244 174.85694299 67.77970606 176.63694145 65.0234375 178.37109375 C64.4253125 178.78101563 63.8271875 179.1909375 63.2109375 179.61328125 C57.82844627 182.66195792 52.71106786 182.57308649 46.69921875 182.47265625 C45.86410767 182.46532471 45.02899658 182.45799316 44.1685791 182.45043945 C42.12011633 182.43139761 40.07175175 182.40225593 38.0234375 182.37109375 C38.04438477 183.46349365 38.06533203 184.55589355 38.08691406 185.68139648 C38.16053206 189.82074327 38.20566911 193.96003533 38.24316406 198.09985352 C38.26300731 199.87534381 38.29009095 201.65077126 38.32519531 203.42602539 C38.84080264 230.21485925 31.07966223 253.07966906 13.0234375 273.37109375 C10.49468914 275.89984211 7.82950309 278.15628896 5.0234375 280.37109375 C3.60998047 281.48677734 3.60998047 281.48677734 2.16796875 282.625 C-18.29957602 298.37126068 -42.93044351 304.63830457 -68.6015625 301.62109375 C-70.71796754 301.33443928 -72.8278755 301.02326839 -74.9375 300.69042969 C-76.90479072 300.38233387 -78.87821484 300.11421733 -80.8515625 299.84765625 C-98.63860568 296.99431807 -113.8089414 286.33225536 -125.9765625 273.37109375 C-126.7809375 272.62859375 -127.5853125 271.88609375 -128.4140625 271.12109375 C-143.29691702 255.14924988 -152.21144216 234.1113863 -152.07421875 212.25390625 C-152.0728038 211.39675018 -152.07138885 210.53959412 -152.06993103 209.65646362 C-152.06436272 206.93630385 -152.05181614 204.21622837 -152.0390625 201.49609375 C-152.0340434 199.64453244 -152.02948121 197.79296984 -152.02539062 195.94140625 C-152.01440367 191.4179366 -151.99716102 186.89452943 -151.9765625 182.37109375 C-153.19762695 182.40082275 -154.41869141 182.43055176 -155.67675781 182.46118164 C-157.30272427 182.48523093 -158.92870167 182.50854821 -160.5546875 182.53125 C-161.35664551 182.55272095 -162.15860352 182.57419189 -162.98486328 182.59631348 C-171.29032017 182.68309322 -177.55545148 180.14521291 -183.8984375 174.73046875 C-185.50174869 173.03191135 -186.73749489 171.34867848 -187.9765625 169.37109375 C-188.38648438 168.74976563 -188.79640625 168.1284375 -189.21875 167.48828125 C-193.06682389 160.50867137 -193.22710774 152.1106433 -191.9765625 144.37109375 C-189.57230729 136.78452165 -185.76005333 130.63904006 -178.9765625 126.37109375 C-178.3784375 125.96117187 -177.7803125 125.55125 -177.1640625 125.12890625 C-171.78157127 122.08022958 -166.66419286 122.16910101 -160.65234375 122.26953125 C-159.81723267 122.27686279 -158.98212158 122.28419434 -158.1217041 122.29174805 C-156.07324133 122.31078989 -154.02487675 122.33993157 -151.9765625 122.37109375 C-151.98544495 121.66968765 -151.99432739 120.96828156 -152.003479 120.24562073 C-152.08445313 113.55515006 -152.14493974 106.86482098 -152.18381119 100.17396641 C-152.20446896 96.73612205 -152.23237241 93.29869072 -152.27832031 89.86108398 C-152.66149828 60.39302807 -152.66149828 60.39302807 -147.9765625 46.37109375 C-147.69925293 45.52168213 -147.42194336 44.67227051 -147.13623047 43.79711914 C-138.83431768 20.69533821 -121.03910506 1.79350537 -99.15234375 -8.92675781 C-66.9829236 -23.88244497 -28.69983133 -21.01111108 0 0 Z " fill="#2C2C2C" transform="translate(204.9765625,25.62890625)"/>
<path d="M0 0 C49.5 0 99 0 150 0 C150.0825 12.54 150.165 25.08 150.25 38 C150.28641602 41.92648438 150.32283203 45.85296875 150.36035156 49.8984375 C150.37841797 54.77734375 150.37841797 54.77734375 150.3817749 57.07763672 C150.38782688 58.64864669 150.40170163 60.21964079 150.42230225 61.79052734 C150.67050291 81.7544506 146.54236892 99.60712104 133 115 C132.36707031 115.73863281 131.73414063 116.47726562 131.08203125 117.23828125 C117.18410125 132.33565737 97.13318479 139.1367989 77 140 C56.19982002 140.40300664 36.25654922 133.54890948 20.68359375 119.6875 C6.25290842 105.2358093 -0.28646173 87.1770367 -0.34777451 66.99451542 C-0.33941669 64.55216405 -0.31675551 62.11021336 -0.29296875 59.66796875 C-0.28854485 58.13236825 -0.28549238 56.59676318 -0.28381348 55.06115723 C-0.26823591 49.43653476 -0.22635296 43.81200984 -0.1875 38.1875 C-0.125625 25.585625 -0.06375 12.98375 0 0 Z " fill="#EED293" transform="translate(73,168)"/>
<path d="M0 0 C14.63545076 12.50313343 24.58495733 28.9506797 27.625 48.125 C27.88426143 52.50391525 27.85872423 56.86861686 27.8203125 61.25390625 C27.8174826 62.48415024 27.81465271 63.71439423 27.81173706 64.98191833 C27.80060547 68.8838808 27.77551358 72.78560774 27.75 76.6875 C27.73882534 79.34439768 27.7308369 82.00129315 27.72265625 84.65820312 C27.70239682 91.1472976 27.66323372 97.63588735 27.625 104.125 C17.725 104.125 7.825 104.125 -2.375 104.125 C-2.41238281 101.85882813 -2.44976562 99.59265625 -2.48828125 97.2578125 C-2.53467073 95.03018273 -2.58584034 92.80270953 -2.63745117 90.57519531 C-2.67042955 89.04306791 -2.69854311 87.51082691 -2.72143555 85.97851562 C-2.90324578 74.12603597 -3.11139058 62.49729186 -11.94140625 53.53515625 C-19.48000967 46.63741844 -27.33625958 44.98036391 -37.38671875 44.921875 C-38.15498489 44.91617493 -38.92325104 44.91047485 -39.71479797 44.90460205 C-41.33776486 44.89518264 -42.96075061 44.88863027 -44.58374023 44.88476562 C-47.0372967 44.87509929 -49.49000052 44.84406397 -51.94335938 44.8125 C-63.47407887 44.73470775 -74.23713692 45.0923634 -82.96484375 53.69140625 C-89.77277216 61.13185613 -91.45337297 68.91861581 -91.69140625 78.83203125 C-91.71218735 79.55742599 -91.73296844 80.28282074 -91.75437927 81.03019714 C-91.81942215 83.33254113 -91.87854773 85.63499282 -91.9375 87.9375 C-91.98072835 89.50456814 -92.02434398 91.07162565 -92.06835938 92.63867188 C-92.17578096 96.46733945 -92.27518942 100.29609627 -92.375 104.125 C-102.275 104.125 -112.175 104.125 -122.375 104.125 C-122.46744144 96.4420889 -122.54689896 88.76115166 -122.59472656 81.078125 C-122.61468999 78.4712872 -122.64187042 75.86449329 -122.67675781 73.2578125 C-123.03085011 46.09685043 -119.53793167 25.00805468 -100.140625 4.796875 C-72.5091107 -21.7510505 -30.05163115 -22.90973116 0 0 Z " fill="#797979" transform="translate(195.375,43.875)"/>
<path d="M0 0 C0.80419373 -0.00807175 1.60838745 -0.01614349 2.43695068 -0.02445984 C4.1417017 -0.03830173 5.84648045 -0.04902342 7.55126953 -0.05688477 C10.14800244 -0.07406085 12.74344976 -0.11793959 15.33984375 -0.16210938 C16.99738648 -0.1722398 18.65494003 -0.18075481 20.3125 -0.1875 C21.47063202 -0.21376213 21.47063202 -0.21376213 22.65216064 -0.24055481 C27.87109603 -0.21974926 30.76194248 0.82687162 34.921875 4.23828125 C36.92363715 6.51055179 38.57020552 8.53494228 39.921875 11.23828125 C40.416875 11.07328125 40.911875 10.90828125 41.421875 10.73828125 C46.17846735 9.78696278 51.28155813 9.69150896 55.921875 11.23828125 C56.47875 10.33078125 57.035625 9.42328125 57.609375 8.48828125 C60.22359045 4.81424872 62.88035178 2.25904286 66.921875 0.23828125 C69.55039297 0.10289651 72.15114608 0.02562062 74.78125 0 C75.56324768 -0.00807175 76.34524536 -0.01614349 77.15093994 -0.02445984 C78.80861189 -0.03830095 80.46631235 -0.04902299 82.12402344 -0.05688477 C84.64834379 -0.07405866 87.17134086 -0.1179374 89.6953125 -0.16210938 C91.30728205 -0.17224005 92.91926273 -0.18075498 94.53125 -0.1875 C95.28146423 -0.20500809 96.03167847 -0.22251617 96.80462646 -0.24055481 C102.00768727 -0.21923079 104.91490898 0.96023238 108.921875 4.23828125 C109.52 5.00140625 110.118125 5.76453125 110.734375 6.55078125 C113.44589568 8.64252577 114.3514483 8.35606642 117.671875 7.98828125 C119.775625 7.61703125 119.775625 7.61703125 121.921875 7.23828125 C121.921875 10.53828125 121.921875 13.83828125 121.921875 17.23828125 C119.941875 17.89828125 117.961875 18.55828125 115.921875 19.23828125 C115.90785645 20.28169678 115.90785645 20.28169678 115.89355469 21.34619141 C115.83963954 24.51925625 115.75603327 27.69088035 115.671875 30.86328125 C115.65769531 31.95769531 115.64351562 33.05210937 115.62890625 34.1796875 C115.40131822 41.69009245 114.63122915 45.50230494 109.2890625 50.8828125 C104.24223972 54.83307431 101.35589451 55.41525669 95.0625 55.4765625 C94.28050232 55.48463425 93.49850464 55.49270599 92.69281006 55.50102234 C91.03513811 55.51486345 89.37743765 55.52558549 87.71972656 55.53344727 C85.19540621 55.55062116 82.67240914 55.5944999 80.1484375 55.63867188 C78.53646795 55.64880255 76.92448727 55.65731748 75.3125 55.6640625 C74.56228577 55.68157059 73.81207153 55.69907867 73.03912354 55.71711731 C67.82861034 55.69576275 64.93687776 54.51365855 60.921875 51.23828125 C57.36751589 47.20360335 55.8247395 44.85193581 55.67578125 39.51953125 C55.64291016 38.58753906 55.61003906 37.65554687 55.57617188 36.6953125 C55.5149776 34.72407562 55.45768526 32.75271374 55.40429688 30.78125 C55.37013672 29.84925781 55.33597656 28.91726562 55.30078125 27.95703125 C55.2757251 27.10044922 55.25066895 26.24386719 55.22485352 25.36132812 C55.1080144 23.02434338 55.1080144 23.02434338 52.921875 21.23828125 C50.55232114 20.9192861 50.55232114 20.9192861 47.921875 20.98828125 C47.035 20.983125 46.148125 20.97796875 45.234375 20.97265625 C42.72787261 21.01775263 42.72787261 21.01775263 40.921875 23.23828125 C40.61733228 25.36854999 40.61733228 25.36854999 40.6484375 27.81640625 C40.6278125 28.73035156 40.6071875 29.64429688 40.5859375 30.5859375 C40.5601073 32.50512109 40.54175248 34.42442133 40.53125 36.34375 C40.38488074 42.14159914 39.85134142 45.66594257 35.921875 50.23828125 C30.82500983 54.72837675 27.71483569 55.41176014 21.0625 55.4765625 C20.28050232 55.48463425 19.49850464 55.49270599 18.69281006 55.50102234 C17.03513811 55.51486345 15.37743765 55.52558549 13.71972656 55.53344727 C11.19540621 55.55062116 8.67240914 55.5944999 6.1484375 55.63867188 C4.53646795 55.64880255 2.92448727 55.65731748 1.3125 55.6640625 C0.56228577 55.68157059 -0.18792847 55.69907867 -0.96087646 55.71711731 C-6.97412275 55.69247286 -10.51312104 53.78500728 -14.72265625 49.60546875 C-18.15708092 45.21767536 -19.19903878 43.1038629 -19.39453125 37.57421875 C-19.43642578 36.45273438 -19.47832031 35.33125 -19.52148438 34.17578125 C-19.56080078 33.00015625 -19.60011719 31.82453125 -19.640625 30.61328125 C-19.68380859 29.42992187 -19.72699219 28.2465625 -19.77148438 27.02734375 C-19.87779926 24.09777797 -19.97983142 21.16812537 -20.078125 18.23828125 C-22.058125 17.57828125 -24.038125 16.91828125 -26.078125 16.23828125 C-26.078125 12.93828125 -26.078125 9.63828125 -26.078125 6.23828125 C-24.0671875 6.67140625 -24.0671875 6.67140625 -22.015625 7.11328125 C-19.03844358 7.47016735 -17.59804556 7.5459496 -14.9921875 6.00390625 C-13.27237972 4.48002594 -11.68181297 2.88195036 -10.078125 1.23828125 C-6.90767019 -0.34694616 -3.48368653 0.03298418 0 0 Z " fill="#2C2C2C" transform="translate(100.078125,175.76171875)"/>
<path d="M0 0 C0.82876144 -0.00807175 1.65752289 -0.01614349 2.51139832 -0.02445984 C4.2674246 -0.03830096 6.02347779 -0.04902299 7.77954102 -0.05688477 C10.45966884 -0.07408526 13.13855903 -0.11796801 15.81835938 -0.16210938 C17.52473051 -0.17223754 19.23111214 -0.18075326 20.9375 -0.1875 C21.73662308 -0.20500809 22.53574615 -0.22251617 23.35908508 -0.24055481 C27.32766551 -0.22515556 29.21749253 -0.04887476 32.65112305 2.13989258 C36.20022272 5.83248569 35.80007781 8.99615652 35.765625 13.87109375 C35.76461792 14.5374585 35.76361084 15.20382324 35.76257324 15.89038086 C35.7573383 18.38136514 35.74337704 20.87232491 35.73046875 23.36328125 C35.70984375 28.93203125 35.68921875 34.50078125 35.66796875 40.23828125 C19.16796875 40.23828125 2.66796875 40.23828125 -14.33203125 40.23828125 C-14.41453125 34.73140625 -14.49703125 29.22453125 -14.58203125 23.55078125 C-14.61844727 21.82126221 -14.65486328 20.09174316 -14.69238281 18.30981445 C-14.70407312 16.92790974 -14.71426414 15.54599118 -14.72265625 14.1640625 C-14.74312012 13.45552124 -14.76358398 12.74697998 -14.78466797 12.01696777 C-14.78722794 8.36452498 -14.43836816 6.40247473 -12.43261719 3.30541992 C-8.6356445 -0.43109423 -5.06686411 0.04648383 0 0 Z " fill="#EED293" transform="translate(137.33203125,107.76171875)"/>
<path d="M0 0 C7.25912543 -0.09081766 14.51793397 -0.16401089 21.77750969 -0.20724869 C25.14941602 -0.22801376 28.52090938 -0.25612389 31.89257812 -0.30175781 C35.78005653 -0.35056663 39.66695735 -0.37303643 43.5546875 -0.390625 C44.74988007 -0.41127014 45.94507263 -0.43191528 47.17648315 -0.45318604 C55.80951965 -0.45547311 62.81894229 0.88864894 69.83984375 6.11328125 C70.87818359 7.20189453 70.87818359 7.20189453 71.9375 8.3125 C72.64777344 9.03050781 73.35804688 9.74851563 74.08984375 10.48828125 C76 13 76 13 79 20 C52.93 20 26.86 20 0 20 C0 13.4 0 6.8 0 0 Z " fill="#A10000" transform="translate(243,128)"/>
<path d="M0 0 C0.67671753 -0.00287018 1.35343506 -0.00574036 2.05065918 -0.00869751 C3.47958209 -0.01073647 4.90853302 -0.00521819 6.33740234 0.00732422 C8.52374725 0.02338239 10.70824379 0.00747216 12.89453125 -0.01171875 C14.28385824 -0.00973629 15.67318409 -0.00589254 17.0625 0 C18.32642578 0.00338379 19.59035156 0.00676758 20.89257812 0.01025391 C24.03125 0.3984375 24.03125 0.3984375 25.94189453 1.54248047 C27.52114113 4.23307497 27.42009847 6.38534228 27.4296875 9.4921875 C27.43548828 11.28462891 27.43548828 11.28462891 27.44140625 13.11328125 C27.42980469 14.36238281 27.41820312 15.61148438 27.40625 16.8984375 C27.41785156 18.14753906 27.42945313 19.39664063 27.44140625 20.68359375 C27.43753906 21.87855469 27.43367188 23.07351562 27.4296875 24.3046875 C27.42630371 25.40103516 27.42291992 26.49738281 27.41943359 27.62695312 C27.03125 30.3984375 27.03125 30.3984375 25.94189453 32.25439453 C23.00722298 34.01159756 20.45714779 33.78778683 17.0625 33.796875 C16.38578247 33.79974518 15.70906494 33.80261536 15.01184082 33.80557251 C13.58291791 33.80761147 12.15396698 33.80209319 10.72509766 33.78955078 C8.53875275 33.77349261 6.35425621 33.78940284 4.16796875 33.80859375 C2.77864176 33.80661129 1.38931591 33.80276754 0 33.796875 C-1.26392578 33.79349121 -2.52785156 33.79010742 -3.83007812 33.78662109 C-6.96875 33.3984375 -6.96875 33.3984375 -8.87939453 32.25439453 C-10.45864113 29.56380003 -10.35759847 27.41153272 -10.3671875 24.3046875 C-10.37105469 23.10972656 -10.37492188 21.91476563 -10.37890625 20.68359375 C-10.36730469 19.43449219 -10.35570312 18.18539062 -10.34375 16.8984375 C-10.35535156 15.64933594 -10.36695313 14.40023437 -10.37890625 13.11328125 C-10.37503906 11.91832031 -10.37117187 10.72335938 -10.3671875 9.4921875 C-10.36380371 8.39583984 -10.36041992 7.29949219 -10.35693359 6.16992188 C-9.96875 3.3984375 -9.96875 3.3984375 -8.87939453 1.54248047 C-5.94472298 -0.21472256 -3.39464779 0.00908817 0 0 Z " fill="#FFFFFF" transform="translate(176.96875,186.6015625)"/>
<path d="M0 0 C0.67671753 -0.00287018 1.35343506 -0.00574036 2.05065918 -0.00869751 C3.47958209 -0.01073647 4.90853302 -0.00521819 6.33740234 0.00732422 C8.52374725 0.02338239 10.70824379 0.00747216 12.89453125 -0.01171875 C14.28385824 -0.00973629 15.67318409 -0.00589254 17.0625 0 C18.32642578 0.00338379 19.59035156 0.00676758 20.89257812 0.01025391 C24.03125 0.3984375 24.03125 0.3984375 25.94189453 1.54248047 C27.52114113 4.23307497 27.42009847 6.38534228 27.4296875 9.4921875 C27.43548828 11.28462891 27.43548828 11.28462891 27.44140625 13.11328125 C27.42980469 14.36238281 27.41820312 15.61148438 27.40625 16.8984375 C27.41785156 18.14753906 27.42945313 19.39664063 27.44140625 20.68359375 C27.43753906 21.87855469 27.43367188 23.07351562 27.4296875 24.3046875 C27.42630371 25.40103516 27.42291992 26.49738281 27.41943359 27.62695312 C27.03125 30.3984375 27.03125 30.3984375 25.94189453 32.25439453 C23.00722298 34.01159756 20.45714779 33.78778683 17.0625 33.796875 C16.38578247 33.79974518 15.70906494 33.80261536 15.01184082 33.80557251 C13.58291791 33.80761147 12.15396698 33.80209319 10.72509766 33.78955078 C8.53875275 33.77349261 6.35425621 33.78940284 4.16796875 33.80859375 C2.77864176 33.80661129 1.38931591 33.80276754 0 33.796875 C-1.26392578 33.79349121 -2.52785156 33.79010742 -3.83007812 33.78662109 C-6.96875 33.3984375 -6.96875 33.3984375 -8.87939453 32.25439453 C-10.45864113 29.56380003 -10.35759847 27.41153272 -10.3671875 24.3046875 C-10.37105469 23.10972656 -10.37492187 21.91476563 -10.37890625 20.68359375 C-10.36730469 19.43449219 -10.35570313 18.18539062 -10.34375 16.8984375 C-10.35535156 15.64933594 -10.36695312 14.40023437 -10.37890625 13.11328125 C-10.37503906 11.91832031 -10.37117188 10.72335938 -10.3671875 9.4921875 C-10.36380371 8.39583984 -10.36041992 7.29949219 -10.35693359 6.16992188 C-9.96875 3.3984375 -9.96875 3.3984375 -8.87939453 1.54248047 C-5.94472298 -0.21472256 -3.39464779 0.00908817 0 0 Z " fill="#FFFFFF" transform="translate(101.96875,186.6015625)"/>
<path d="M0 0 C3.21954645 2.53453657 4.70432435 4.11297305 6 8 C6.48656771 14.48445049 6.9143045 20.49097885 3 26 C-0.67294875 28.4486325 -3.73268965 28.83183438 -8 28 C-11.21954645 25.46546343 -12.70432435 23.88702695 -14 20 C-14.48656771 13.51554951 -14.9143045 7.50902115 -11 2 C-7.32705125 -0.4486325 -4.26731035 -0.83183438 0 0 Z " fill="#2C2C2C" transform="translate(187,189)"/>
<path d="M0 0 C3.21954645 2.53453657 4.70432435 4.11297305 6 8 C6.48656771 14.48445049 6.9143045 20.49097885 3 26 C-0.67294875 28.4486325 -3.73268965 28.83183438 -8 28 C-11.21954645 25.46546343 -12.70432435 23.88702695 -14 20 C-14.48656771 13.51554951 -14.9143045 7.50902115 -11 2 C-7.32705125 -0.4486325 -4.26731035 -0.83183438 0 0 Z " fill="#2C2C2C" transform="translate(117,189)"/>
<path d="M0 0 C13.24210988 -0.49503214 13.24210988 -0.49503214 16.89453125 1.890625 C19.80431617 4.80580841 19.96633468 5.58928311 20.3125 9.8125 C20.28232024 13.13227327 20.0060988 13.99044521 18.125 16.9375 C13.16817293 21.74853804 6.55306433 20.05957331 0 20 C0 13.4 0 6.8 0 0 Z " fill="#EED293" transform="translate(243,168)"/>
<path d="M0 0 C0 6.6 0 13.2 0 20 C-13.24210988 20.49503214 -13.24210988 20.49503214 -16.89453125 18.109375 C-19.80431617 15.19419159 -19.96633468 14.41071689 -20.3125 10.1875 C-20.28232024 6.86772673 -20.0060988 6.00955479 -18.125 3.0625 C-13.16817293 -1.74853804 -6.55306433 -0.05957331 0 0 Z " fill="#EED293" transform="translate(53,168)"/>
<path d="" fill="#FFFFFF" transform="translate(0,0)"/>
</svg>
